<?xml version="1.0" encoding="UTF-8"?>
<svg version="1.1" xmlns="http://www.w3.org/2000/svg" width="420" height="420" viewBox="0 0 612 626">
<path d="M0,0 L2,2 L7,18 L10,27 L15,43 L18,54 L23,70 L26,82 L30,92 L36,112 L47,147 L50,156 L52,165 L55,172 L59,185 L64,201 L66,201 L75,190 L82,183 L91,172 L93,172 L95,168 L106,156 L113,148 L125,134 L134,124 L139,118 L141,118 L144,170 L145,204 L147,234 L148,255 L149,264 L150,296 L151,310 L151,331 L145,349 L142,358 L133,380 L131,388 L129,392 L145,384 L162,376 L175,369 L182,366 L198,358 L214,350 L223,346 L226,345 L224,349 L214,361 L204,374 L194,387 L184,400 L173,414 L163,427 L157,435 L133,446 L126,450 L113,455 L107,458 L87,458 L43,457 L-30,456 L-83,454 L-87,448 L-94,442 L-101,434 L-112,422 L-121,412 L-123,399 L-124,384 L-128,360 L-130,338 L-132,328 L-134,307 L-136,294 L-137,279 L-143,243 L-146,217 L-146,207 L-163,210 L-176,213 L-186,215 L-197,219 L-195,215 L-188,208 L-181,200 L-169,187 L-160,177 L-149,164 L-145,164 L-136,171 L-124,182 L-115,190 L-117,198 L-114,207 L-110,220 L-107,226 L-104,236 L-99,251 L-93,268 L-89,279 L-89,282 L-87,282 L-86,275 L-78,250 L-75,241 L-73,232 L-70,225 L-68,216 L-65,209 L-63,200 L-60,192 L-54,171 L-40,126 L-35,111 L-22,69 L-14,44 L-11,35 L-9,26 L-4,10 Z " fill="#7EA6AF" transform="translate(301.0,92.0)"/>
<path d="M0,0 L2,0 L5,52 L6,86 L8,116 L9,137 L10,146 L11,178 L12,192 L12,213 L2,217 L-12,225 L-28,233 L-42,241 L-54,247 L-71,256 L-86,264 L-100,272 L-114,279 L-121,283 L-136,291 L-147,297 L-157,302 L-168,308 L-196,323 L-205,328 L-207,327 L-188,316 L-177,309 L-167,304 L-162,302 L-162,300 L-148,293 L-135,285 L-121,277 L-109,270 L-100,265 L-93,260 L-82,254 L-71,248 L-60,241 L-49,235 L-45,234 L-45,232 L-34,226 L-27,222 L-24,222 L-24,220 L-10,212 L4,204 L6,204 L5,198 L3,168 L0,138 L-1,118 L-4,88 L-8,38 L-8,30 L-13,34 L-14,36 L-16,36 L-18,40 L-21,44 L-23,44 L-23,46 L-25,46 L-25,48 L-27,48 L-29,52 L-38,62 L-46,70 L-55,81 L-57,81 L-58,85 L-65,91 L-70,98 L-75,103 L-83,111 L-90,119 L-96,126 L-101,131 L-110,141 L-122,154 L-125,158 L-127,158 L-129,162 L-137,171 L-139,171 L-141,176 L-143,176 L-145,180 L-156,191 L-165,202 L-170,208 L-175,213 L-185,223 L-192,231 L-195,235 L-197,235 L-199,239 L-204,244 L-216,258 L-223,266 L-229,271 L-230,273 L-232,273 L-234,277 L-242,286 L-243,288 L-245,288 L-247,292 L-254,299 L-260,294 L-262,281 L-262,271 L-261,271 L-258,290 L-256,290 L-245,277 L-234,265 L-225,254 L-213,241 L-206,233 L-197,223 L-190,215 L-181,205 L-169,191 L-158,179 L-151,171 L-139,157 L-126,143 L-117,132 L-103,117 L-96,109 L-88,99 L-86,99 L-84,95 L-73,83 L-64,72 L-57,65 L-48,54 L-46,54 L-44,50 L-33,38 L-26,30 L-14,16 L-5,6 Z " fill="#90B2BA" transform="translate(440.0,210.0)"/>
<path d="M0,0 L2,2 L7,18 L10,27 L15,43 L18,54 L23,70 L26,82 L30,92 L36,112 L47,147 L50,156 L52,165 L55,172 L59,185 L64,201 L63,205 L54,215 L53,217 L51,217 L49,221 L38,233 L31,241 L22,251 L13,262 L6,269 L-1,277 L-13,291 L-24,303 L-31,311 L-44,326 L-56,339 L-65,350 L-72,357 L-81,368 L-93,381 L-100,389 L-109,399 L-114,405 L-114,402 L-104,389 L-96,378 L-83,360 L-74,348 L-70,343 L-71,336 L-77,318 L-83,300 L-86,291 L-87,288 L-87,278 L-78,250 L-75,241 L-73,232 L-70,225 L-68,216 L-65,209 L-63,200 L-60,192 L-54,171 L-40,126 L-35,111 L-22,69 L-14,44 L-11,35 L-9,26 L-4,10 Z " fill="#547E87" transform="translate(301.0,92.0)"/>
<path d="M0,0 L3,0 L2,7 L-4,23 L-10,40 L-14,49 L-16,57 L-18,61 L-2,53 L15,45 L28,38 L35,35 L51,27 L67,19 L76,15 L79,14 L77,18 L67,30 L57,43 L47,56 L37,69 L26,83 L16,96 L10,104 L-14,115 L-21,119 L-34,124 L-40,127 L-60,127 L-132,125 L-221,122 L-223,121 L-223,119 L-207,111 L-189,101 L-170,91 L-160,85 L-148,79 L-129,69 L-118,63 L-101,54 L-89,47 L-73,39 L-62,33 L-43,23 L-23,12 L-9,5 Z " fill="#729EA7" transform="translate(448.0,423.0)"/>
<path d="M0,0 L4,1 L5,7 L-5,18 L-6,20 L-8,20 L-10,24 L-21,36 L-28,44 L-37,54 L-46,65 L-53,72 L-60,80 L-72,94 L-83,106 L-90,114 L-103,129 L-115,142 L-124,153 L-131,160 L-140,171 L-152,184 L-159,192 L-168,202 L-173,208 L-173,205 L-163,192 L-155,181 L-142,163 L-133,151 L-129,146 L-130,139 L-136,121 L-142,103 L-142,97 L-131,90 L-120,82 L-114,78 L-112,78 L-112,76 L-96,66 L-85,58 L-79,54 L-77,54 L-77,52 L-64,44 L-50,34 L-44,30 L-42,30 L-42,28 L-35,24 L-22,15 L-11,7 L-5,3 Z " fill="#43656C" transform="translate(360.0,289.0)"/>
<path d="M0,0 L2,0 L0,4 L-10,16 L-20,29 L-30,42 L-40,55 L-51,69 L-61,82 L-67,90 L-91,101 L-98,105 L-111,110 L-117,112 L-115,102 L-111,91 L-107,81 L-103,68 L-99,58 L-81,48 L-73,43 L-61,36 L-47,28 L-44,28 L-44,26 L-33,20 L-32,16 L-11,6 L-1,1 Z " fill="#547E87" transform="translate(525.0,437.0)"/>
<path d="M0,0 L2,0 L1,4 L-8,9 L-10,9 L-10,11 L-26,19 L-35,25 L-46,31 L-63,41 L-64,37 L-61,31 L-54,26 L-39,19 L-16,8 L-4,2 Z " fill="#62939D" transform="translate(491.0,454.0)"/>
<path d="M0,0 L2,0 L1,10 L-7,48 L-8,52 L-17,57 L-30,62 L-36,64 L-34,54 L-30,43 L-26,33 L-22,20 L-18,10 Z " fill="#43656D" transform="translate(444.0,485.0)"/>
<path d="M0,0 L2,0 L0,4 L-17,16 L-26,22 L-28,18 L-28,16 L-45,19 L-53,21 L-59,21 L-56,19 L-21,7 Z " fill="#557F88" transform="translate(183.0,283.0)"/>
<path d="M0,0 L2,1 L0,5 L-23,17 L-43,28 L-45,27 L-26,16 L-15,9 L-5,4 L0,2 Z " fill="#8AAFB7" transform="translate(278.0,510.0)"/>
<path d="M0,0 L3,4 L-9,17 L-18,28 L-22,31 L-20,27 L-11,15 L-3,4 Z " fill="#476A72" transform="translate(208.0,466.0)"/>
<path d="M0,0 L1,3 L-9,13 L-16,21 L-19,21 L-3,4 Z " fill="#8EB1B8" transform="translate(136.0,274.0)"/>
<path d="M0,0 L4,0 L4,4 L-12,8 L-20,10 L-26,10 L-23,8 Z " fill="#416168" transform="translate(150.0,294.0)"/>
<path d="M0,0 L4,1 L-1,4 L-6,7 L-8,7 L-8,9 L-15,12 L-14,8 L-12,6 L-2,2 Z " fill="#5E8C96" transform="translate(489.0,456.0)"/>
<path d="M0,0 L1,4 L-10,16 L-10,13 Z " fill="#4D747C" transform="translate(197.0,481.0)"/>
<path d="M0,0 L3,2 L-5,9 L-9,12 L-7,8 Z " fill="#84AAB3" transform="translate(347.0,315.0)"/>
<path d="M0,0 L2,0 L0,4 L-5,9 L-5,6 L-11,7 L-8,4 L-1,1 Z " fill="#6595A0" transform="translate(525.0,437.0)"/>
<path d="M0,0 L0,3 L-7,11 L-10,11 Z " fill="#9EBCC3" transform="translate(432.0,219.0)"/>
<path d="M0,0 L3,0 L3,2 L7,3 L-6,8 L-4,4 Z " fill="#8AAEB6" transform="translate(110.0,303.0)"/>
<path d="M0,0 L3,0 L3,3 L-5,5 L-11,5 L-8,3 Z " fill="#517982" transform="translate(135.0,299.0)"/>
<path d="M0,0 L2,3 L0,9 L-3,11 Z " fill="#5E8D97" transform="translate(287.0,136.0)"/>
<path d="M0,0 L2,0 L2,3 L-1,3 L-1,5 L-6,4 L-2,1 Z " fill="#6897A1" transform="translate(499.0,450.0)"/>
<path d="M0,0 L2,1 L5,4 L-2,5 L-3,1 Z " fill="#486C74" transform="translate(147.0,295.0)"/>
<path d="M0,0 L4,0 L4,4 L-1,4 L-1,1 Z " fill="#416168" transform="translate(150.0,294.0)"/>
</svg>
